<svg
  width="96"
  height="96"
  viewBox="0 0 96 96"
  fill="none"
  xmlns="http://www.w3.org/2000/svg"
>
  <!-- Studium brain icon – symmetric outline + inner folds -->
  <g
    stroke="#2979FF"
    stroke-width="4.5"
    stroke-linecap="round"
    stroke-linejoin="round"
  >
    <!-- Outer left half -->
    <path
      d="
        M48 10
        C42 10 38 13 36 17
        C32 17 28 19 25 22
        C21 26 19 31 19 37
        C16 39 14 43 14 48
        C14 53 16 57 19 59
        C19 63 19 67 20 70
        C22 76 26 81 31 84
        C35 86 39 87 42 86
      "
    />

    <!-- Outer right half -->
    <path
      d="
        M48 10
        C54 10 58 13 60 17
        C64 17 68 19 71 22
        C75 26 77 31 77 37
        C80 39 82 43 82 48
        C82 53 80 57 77 59
        C77 63 77 67 76 70
        C74 76 70 81 65 84
        C61 86 57 87 54 86
      "
    />

    <!-- Center split -->
    <path d="M48 12 V84" />

    <!-- Left inner folds -->
    <path
      d="
        M36 22
        C32 23 30 27 30 31
        C30 35 32 37 34 39
      "
    />
    <path
      d="
        M32 36
        C29 38 27 42 27 46
        C27 50 29 53 32 55
      "
    />
    <path
      d="
        M36 50
        C33 52 32 56 32 60
        C32 64 34 68 36 70
      "
    />

    <!-- Right inner folds (mirrored) -->
    <path
      d="
        M60 22
        C64 23 66 27 66 31
        C66 35 64 37 62 39
      "
    />
    <path
      d="
        M64 36
        C67 38 69 42 69 46
        C69 50 67 53 64 55
      "
    />
    <path
      d="
        M60 50
        C63 52 64 56 64 60
        C64 64 62 68 60 70
      "
    />
  </g>
</svg>

